<svg width="36" height="36" viewBox="0 0 36 36" fill="none" xmlns="http://www.w3.org/2000/svg">
<path fill-rule="evenodd" clip-rule="evenodd" d="M10.2402 6.5H25.8383L34.5 14.4748L32.9776 15.8481C32.7047 16.0944 32.3081 16.4522 31.8136 16.8985C30.8246 17.7911 29.4438 19.0376 27.8764 20.4534C24.7414 23.2851 20.8609 26.7931 17.877 29.5L15.8073 27.5C18.7937 24.7909 22.6761 21.2812 25.8114 18.4492C27.3791 17.0331 28.7603 15.7863 29.7495 14.8935C29.9242 14.7358 30.0868 14.5891 30.2359 14.4545L24.6209 9.28481H22.0508L27.3326 14.3139L14.4004 26.2227L1.5 14.2776L10.2402 6.5ZM14.2522 9.28481H11.4281L5.77274 14.3173L14.4061 22.3114L23.1267 14.281L18.329 9.71286H18.0424L12.9686 14.3485L14.4063 15.6496L17.9532 12.4581L20.0141 14.466L14.4002 19.5174L8.69961 14.3579L14.2522 9.28481Z" fill="white"/>
</svg>
